<?xml version="1.0" standalone="yes"?>
<svg version="1.1" id="Layer_1" xmlns="http://www.w3.org/2000/svg" xmlns:xlink="http://www.w3.org/1999/xlink" x="0px" y="0px"
	 viewBox="95 0 2000 1000"  height="100%" width="100%"style="enable-background:new 0 0 1500 750;" xml:space="preserve">
<path style="fill:none; stroke:none;" d="M0 0L0 181L384 181L384 270L94 270L94 423L352 423L352 513L94 513L94 669L395 669L395 758L0 758L0 779L1847 779C1830.44 755.485 1803.76 735.811 1783 715.961C1738.36 673.276 1694.63 629.641 1650 586.961C1604.39 543.352 1558.65 499.573 1514 455C1494.32 435.357 1474.61 415.479 1454 396.83C1446.9 390.401 1440.85 382.528 1433 377L1435 758L1341 758L1341 161C1352.53 161.869 1366.06 180.062 1374 188C1400.51 214.514 1427.5 240.498 1454 267C1518.5 331.503 1584.5 394.502 1649 459C1671.52 481.516 1694.49 503.489 1717 526C1730.74 539.745 1744 555.86 1760 567L1758 181L1851 181L1851 0L856 0C868.736 18.0799 888.162 32.2398 902.718 49C930.097 80.5234 953.26 116.033 970.691 154C1028.07 278.973 1024.25 428.797 958.691 550C935.718 592.473 906.026 628.973 872 663C879.948 651.717 890.675 642.067 899.116 631C914.231 611.181 926.489 589.024 935.989 566C970.824 481.577 963.584 382.391 916.551 304C899.959 276.346 878.68 253.68 856 231L855 231C821.563 264.437 793.147 299.915 775.011 344C730.499 452.199 757.696 580.468 840 663C831.529 657.033 824.91 648.553 817.911 641C798.186 619.715 780.902 596.62 765.576 572C687.672 446.85 680.086 286.332 741.309 153C759.141 114.165 783.077 78.0548 811.286 46C825.008 30.4065 843.083 16.9169 855 0L0 0z"/>
<path style="fill:#736357; stroke:none;" d="M855 0C815.861 39.1392 779.818 78.9888 753.309 128C686.354 251.785 681.571 408.619 744.753 535C762.25 569.999 783.312 602.315 808.87 632C817.484 642.005 827.887 657.351 840 663C832.519 652.37 822.619 643.337 814.651 633C800.609 614.784 788.902 594.895 779.309 574C741.084 490.741 747.749 395.412 789.258 315C799.265 295.616 812.607 277.187 827.169 261C836.128 251.041 847.313 241.912 855 231L856 231C862.85 240.725 872.86 248.191 880.83 257C894.249 271.832 906.258 287.845 916.551 305C963.455 383.175 970.856 481.924 935.576 566C926.07 588.654 914.029 610.446 899.116 630C891.031 640.601 877.542 651.116 872 663C884.905 653.909 895.996 640.063 906.08 628C929.273 600.257 949.073 570.347 965.247 538C1035.82 396.853 1023.68 222.958 936.333 92C919.899 67.3601 900.918 44.918 880 24C871.989 15.9893 864.27 6.52997 855 0z"/>
<path style="fill:#c7b399; stroke:none;" d="M1341 161L1341 758L1435 758L1433 377C1532.51 476.506 1636.5 571.499 1736 671C1763.72 698.723 1791.6 727.355 1821 753.286C1829.41 760.703 1839.54 777.232 1851 779L1851 181L1758 181L1760 567C1657.13 466.25 1553.83 365.828 1452 264C1426.17 238.168 1399.85 212.845 1374 187C1365.91 178.909 1352.92 161.387 1341 161M0 181L0 758L395 758L395 669L94 669L94 513L352 513L352 423L94 423L94 270L384 270L384 181L0 181M1053 256C1055.68 289.905 1061.46 322.743 1059.96 357C1058.75 384.605 1051.88 411.626 1050.09 439C1049.21 452.559 1052.85 466.255 1051.91 480C1049.28 518.418 1037.94 554.829 1016.48 587C1002.44 608.062 984.573 625.896 964 640.573C864.007 711.909 721.215 664.994 671.309 556C657.275 525.352 651.569 491.573 653.039 458C653.579 445.666 657.917 433.235 657.921 421C657.932 394.161 651.079 367.075 651.079 340C651.079 308.56 657.537 278.163 660 247C643.591 254.652 628.854 275.836 618.13 290C584.234 334.767 562.035 387.744 557.911 444C553.944 498.125 562.345 551.935 586.259 601C638.685 708.562 758.123 775.143 877 763.83C918.208 759.909 957.527 748.419 994 728.691C1111.1 665.353 1171.57 527.749 1139.37 399C1129.25 358.523 1109.57 320.702 1083.79 288C1075.56 277.555 1065.25 261.713 1053 256z"/>
</svg>
